HIERARCHY
ROOT Hips
{
	OFFSET 0.00000 0.00000 0.00000
	CHANNELS 6 Xposition Yposition Zposition Yrotation Zrotation Xrotation 
	JOINT Lumbar
	{
		OFFSET 0 0 0
		CHANNELS 3 Zrotation Xrotation Yrotation
		JOINT Neck
		{
			OFFSET 0.00 0.2701 0.00
			CHANNELS 3 Zrotation Xrotation Yrotation
			End Site
			{
				OFFSET 0.00 0.1379 0.00
			}
		}
		JOINT RightShoulder
		{
			OFFSET 0.0119 0.2289 0.1181
			CHANNELS 3 Zrotation Xrotation Yrotation
			JOINT RightElbow
			{
				OFFSET 0.00 -0.1475 0.00
				CHANNELS 2 Zrotation Yrotation
				JOINT RightWrist
				{
					OFFSET 0.00 -0.1605 0.00
					CHANNELS 2 Zrotation Xrotation
					End Site
					{
						OFFSET 0.0040 -0.1068 0.0006
					}
				}
			}
		}
		JOINT LeftShoulder
		{
			OFFSET 0.0119 0.2289 -0.1181
			CHANNELS 3 Zrotation Xrotation Yrotation
			JOINT LeftElbow
			{
				OFFSET 0.00 -0.1475 0.00
				CHANNELS 2 Zrotation Yrotation
				JOINT LeftWrist
				{
					OFFSET 0.00 -0.1605 0.00
					CHANNELS 2 Zrotation Xrotation
					End Site
					{
						OFFSET 0.0040 -0.1068 -0.0006
					}
				}
			}
		}
	}
	JOINT RightHip
	{
		OFFSET 0.0316 -0.0424 0.0458
		CHANNELS 3 Zrotation Xrotation Yrotation
		JOINT RightKnee
		{
			OFFSET 0.00 -0.2438 0.00
			CHANNELS 1 Zrotation
			JOINT RightAnkle
			{
				OFFSET 0.00 -0.2449 0.00
				CHANNELS 3 Zrotation Xrotation Yrotation
				End Site
				{
					OFFSET 0.1237 -0.0542 0.0051
				}
			}
		}
	}
	JOINT LeftHip
	{
		OFFSET 0.0316 -0.0424 -0.0458
		CHANNELS 3 Zrotation Xrotation Yrotation
		JOINT LeftKnee
		{
			OFFSET 0.00 -0.2438 0.00
			CHANNELS 1 Zrotation
			JOINT LeftAnkle
			{
				OFFSET 0.00 -0.2449 0.00
				CHANNELS 3 Zrotation Xrotation Yrotation
				End Site
				{
					OFFSET 0.1237 -0.0542 -0.0051
				}
			}
		}
	}
}
MOTION
Frames: 22
Frame Time: 0.02
-0.91498 0.00256 -0.16639 175.64956 -35.96178 -0.81527 23.40499 4.48902 -14.05801 -12.18475 3.43804 -2.1199 11.48317 -5.60324 29.45843 109.10236 71.37562 -12.61042 0.71593 15.44786 5.6024 -20.39775 89.76296 -86.44858 19.21973 1.90586 21.01726 -3.10051 13.95533 0.52488 -6.45393 -35.6884 -19.51949 19.9095 6.66218 -9.5316 0.53148 -6.40512 30.71625 18.16702
-0.91488 0.00254 -0.16623 175.62337 -35.96722 -0.81197 23.45934 4.47931 -14.07804 -12.16016 3.3964 -2.1199 11.19238 -5.75735 29.66237 109.24978 71.74706 -12.53037 0.78062 15.36782 5.65389 -20.353 89.79788 -86.53888 19.17349 1.92688 21.03982 -3.12211 13.99182 0.52531 -6.46416 -35.69782 -19.52224 19.92117 6.63989 -9.71739 0.53212 -6.76794 31.21684 18.31722
-0.91477 0.00251 -0.16609 175.57892 -35.96725 -0.80793 23.50429 4.46946 -14.07931 -12.1155 3.3642 -2.1199 10.98757 -5.88625 30.11243 109.40828 72.2362 -12.39209 0.87505 15.29926 5.69714 -20.31715 89.80348 -86.66353 19.13952 1.95852 21.06164 -3.14672 14.034 0.52572 -6.45941 -35.69047 -19.52046 19.92522 6.61446 -10.07355 0.53326 -7.45656 32.14427 18.58714
-0.91466 0.00249 -0.16594 175.54237 -35.96993 -0.80449 23.55349 4.45948 -14.08829 -12.08034 3.32895 -2.1199 10.74336 -6.02644 30.45282 109.56368 72.66642 -12.28329 0.95287 15.22677 5.7432 -20.27845 89.82197 -86.76654 19.09742 1.98446 21.08427 -3.16962 14.06161 0.52611 -6.43893 -35.66059 -19.51236 19.933 6.59072 -10.34016 0.53413 -7.97796 32.8529 18.7949
-0.91456 0.00246 -0.16578 175.5075 -35.97212 -0.79975 23.60301 4.45028 -14.10045 -12.0432 3.28845 -2.1199 10.5001 -6.16732 30.78316 109.71202 73.12176 -12.16192 1.0471 15.14845 5.79315 -20.23467 89.84281 -86.89571 19.06596 2.0141 21.10537 -3.19414 14.13623 0.52664 -6.50657 -35.74873 -19.53713 19.9401 6.56571 -10.65505 0.53514 -8.57527 33.65979 19.03348
-0.91444 0.00244 -0.16565 175.46491 -35.97383 -0.79763 23.6495 4.43944 -14.10191 -12.00584 3.26094 -2.1199 10.27536 -6.30065 31.19119 109.87645 73.54952 -12.05324 1.11278 15.08511 5.8332 -20.20344 89.85165 -86.9784 19.01558 2.03851 21.12918 -3.21588 14.11828 0.52687 -6.39456 -35.59705 -19.49516 19.94656 6.54271 -10.91068 0.536 -9.09279 34.36464 19.2368
-0.91426 0.00241 -0.16555 175.40402 -35.97671 -0.80271 23.69044 4.42405 -14.07471 -11.96929 3.26921 -2.1199 10.08209 -6.42078 31.77856 110.09293 73.90299 -11.98842 1.09446 15.06097 5.84606 -20.20648 89.83389 -86.92294 18.90661 2.04631 21.16223 -3.22971 13.81047 0.52617 -5.73038 -34.70626 -19.2467 19.95399 6.52533 -10.96399 0.53635 -9.32179 34.69829 19.31599
-0.91406 0.00238 -0.16547 175.33624 -35.97907 -0.81051 23.72853 4.40704 -14.03802 -11.93383 3.28983 -2.1199 9.90444 -6.53382 32.43148 110.32332 74.22003 -11.93909 1.04576 15.05148 5.84954 -20.22153 89.80511 -86.81978 18.7788 2.04843 21.19773 -3.24051 13.4151 0.52519 -4.89654 -33.58906 -18.93534 19.96084 6.5102 -10.95149 0.53654 -9.45771 34.91253 19.35528
-0.91387 0.00236 -0.16538 175.27256 -35.98083 -0.81723 23.7676 4.3908 -14.00813 -11.90021 3.30335 -2.1199 9.7187 -6.64934 33.03829 110.54047 74.53237 -11.88638 1.00886 15.0349 5.85856 -20.22995 89.78174 -86.73905 18.66173 2.05282 21.23097 -3.25231 13.08201 0.5244 -4.1808 -32.63017 -18.66852 19.96729 6.4945 -10.96785 0.5368 -9.62986 35.17314 19.41165
-0.91369 0.00233 -0.16529 175.20417 -35.98585 -0.82327 23.80776 4.37437 -13.96724 -11.85619 3.32348 -2.1199 9.53969 -6.7676 33.72215 110.78702 74.93424 -11.81702 0.9806 15.02048 5.86204 -20.24367 89.75566 -86.65576 18.53575 2.05878 21.26887 -3.26578 12.65594 0.52333 -3.2946 -31.44088 -18.3354 19.97618 6.4768 -10.99528 0.53709 -9.83992 35.48317 19.47707
-0.91349 0.00231 -0.16522 175.14414 -35.98413 -0.83136 23.84499 4.358 -13.94704 -11.83413 3.33267 -2.1199 9.3498 -6.87819 34.2584 110.97576 75.14483 -11.78576 0.92787 15.00498 5.87478 -20.24906 89.73296 -86.56677 18.42388 2.06016 21.29784 -3.27507 12.40044 0.52278 -2.71939 -30.67268 -18.12394 19.9801 6.4638 -10.98087 0.53727 -9.94341 35.6547 19.512
-0.91329 0.00227 -0.16517 175.10961 -35.96307 -0.84484 23.87562 4.34175 -13.98812 -11.87457 3.30827 -2.1199 9.12122 -6.97451 34.36554 110.999 74.78827 -11.86521 0.80521 14.98227 5.91671 -20.22863 89.72276 -86.46705 18.35386 2.0486 21.30009 -3.27311 12.6567 0.52378 -3.07904 -31.16872 -18.27751 19.96926 6.46368 -10.87519 0.53718 -9.78622 35.48731 19.47797
-0.91308 0.00223 -0.16513 175.08369 -35.93545 -0.86023 23.9033 4.32569 -14.05005 -11.93676 3.2725 -2.1199 8.8818 -7.06241 34.32172 110.96395 74.248 -11.98127 0.66077 14.95809 5.96804 -20.19939 89.7164 -86.36421 18.29895 2.03288 21.29355 -3.26712 13.08409 0.52529 -3.75131 -32.08809 -18.55322 19.95373 6.46813 -10.72791 0.53698 -9.52235 35.1812 19.41343
-0.91287 0.0022 -0.16508 175.05343 -35.91144 -0.87453 23.93187 4.30982 -14.10139 -11.98772 3.24203 -2.1199 8.64981 -7.15106 34.34932 110.95724 73.82371 -12.07448 0.53242 14.9349 6.01429 -20.17401 89.70813 -86.2671 18.23819 2.02016 21.29196 -3.26324 13.42029 0.52652 -4.25766 -32.78328 -18.76395 19.94115 6.4702 -10.59269 0.53681 -9.29726 34.92536 19.35818
-0.91267 0.00216 -0.16504 175.02469 -35.88471 -0.88991 23.96224 4.2927 -14.15727 -12.04445 3.2112 -2.1199 8.40704 -7.25292 34.3673 110.94342 73.26444 -12.19346 0.3764 14.91064 6.06378 -20.14949 89.70014 -86.15051 18.17246 2.00268 21.28633 -3.25804 13.80972 0.52793 -4.85813 -33.60388 -19.01219 19.92503 6.47367 -10.48164 0.53671 -9.10589 34.71402 19.31926
-0.91245 0.00213 -0.16499 174.99498 -35.86216 -0.90342 23.98818 4.2783 -14.20855 -12.09423 3.17853 -2.1199 8.18496 -7.32476 34.36883 110.93015 72.93892 -12.26845 0.27384 14.88836 6.10868 -20.12112 89.69262 -86.07389 18.12094 1.99404 21.28709 -3.25472 14.13052 0.52909 -5.33983 -34.2679 -19.21248 19.91527 6.47524 -10.3144 0.53645 -8.82541 34.3855 19.24166
-0.9122 0.00211 -0.16493 174.9601 -35.8522 -0.9116 24.00278 4.27098 -14.24411 -12.12043 3.1411 -2.1199 8.01377 -7.32121 34.35873 110.93468 73.3406 -12.20244 0.31881 14.86947 6.14022 -20.08242 89.68555 -86.11283 18.10498 2.01231 21.30694 -3.25724 14.21661 0.52936 -5.41109 -34.38741 -19.24789 19.92336 6.47062 -9.974 0.53567 -8.27773 33.70533 19.04648
-0.91193 0.00209 -0.16487 174.92411 -35.84677 -0.91776 24.013 4.26647 -14.274 -12.13874 3.10261 -2.1199 7.86534 -7.28687 34.33743 110.94135 73.97741 -12.09264 0.41921 14.85301 6.16657 -20.04037 89.67883 -86.19152 18.10291 2.03939 21.33361 -3.26188 14.22882 0.52936 -5.35416 -34.33764 -19.23166 19.93816 6.46388 -9.58343 0.53474 -7.65213 32.92257 18.81657
-0.91167 0.00207 -0.16481 174.88888 -35.83966 -0.92464 24.02513 4.26092 -14.30511 -12.16004 3.06614 -2.1199 7.71229 -7.26296 34.32302 110.94566 74.48233 -12.00991 0.49831 14.83698 6.1943 -20.00105 89.67193 -86.24938 18.09454 2.06148 21.35763 -3.26577 14.27749 0.5295 -5.36054 -34.37191 -19.24103 19.95046 6.458 -9.23546 0.53394 -7.0951 32.22997 18.61531
-0.91141 0.00205 -0.16476 174.85268 -35.83078 -0.93245 24.03754 4.25435 -14.34257 -12.18455 3.02276 -2.1199 7.53479 -7.25335 34.29607 110.95382 75.08555 -11.8988 0.56141 14.81446 6.22647 -19.95652 89.66528 -86.31879 18.08658 2.08753 21.37956 -3.2686 14.31986 0.52958 -5.35582 -34.39009 -19.24548 19.96032 6.45273 -8.80508 0.53291 -6.39911 31.35509 18.36051
-0.91115 0.00203 -0.16469 174.81836 -35.82667 -0.93778 24.04833 4.2506 -14.36534 -12.20027 2.99371 -2.1199 7.41363 -7.20731 34.29422 110.95521 75.54345 -11.83515 0.66978 14.80603 6.24806 -19.92194 89.6581 -86.37358 18.08094 2.10753 21.40744 -3.27421 14.35565 0.52971 -5.34043 -34.39694 -19.24649 19.97686 6.44561 -8.53163 0.53232 -5.96939 30.82928 18.20704
-0.91087 0.00202 -0.16462 174.7873 -35.83524 -0.93719 24.05607 4.25357 -14.34742 -12.19322 3.00414 -2.1199 7.4436 -7.06344 34.36761 110.93788 75.53279 -11.91976 0.9022 14.83621 6.24157 -19.91761 89.64985 -86.37894 18.07762 2.10839 21.45118 -3.28696 14.38931 0.53007 -5.31845 -34.40332 -19.24839 20.01074 6.43401 -8.73407 0.53312 -6.3489 31.3653 18.36301
